<?xml version="1.0" encoding="utf-8"?>
<!-- Generator: Avocode 2.6.0 - http://avocode.com -->
<svg height="7" width="12" xmlns:xlink="http://www.w3.org/1999/xlink" xmlns="http://www.w3.org/2000/svg" viewBox="0 0 12 7">
    <path fill="#ffffff" fill-rule="evenodd" d="M 5.83 7 C 5.63 7 5.43 6.93 5.29 6.78 C 5.29 6.78 0.58 2.1 0.58 2.1 C 0.29 1.8 0.29 1.32 0.58 1.02 C 0.88 0.73 1.37 0.73 1.67 1.02 C 1.67 1.02 5.83 5.16 5.83 5.16 C 5.83 5.16 9.99 1.02 9.99 1.02 C 10.29 0.73 10.77 0.73 11.07 1.02 C 11.37 1.32 11.37 1.8 11.07 2.1 C 11.07 2.1 6.37 6.78 6.37 6.78 C 6.22 6.93 6.02 7 5.83 7 Z" />
</svg>