<?xml version="1.0" encoding="utf-8"?>
<!-- Generator: Avocode 2.6.0 - http://avocode.com -->
<svg height="11" width="21" xmlns:xlink="http://www.w3.org/1999/xlink" xmlns="http://www.w3.org/2000/svg" viewBox="0 0 21 11">
    <path fill="#ffffff" fill-rule="evenodd" d="M 11.54 0.91 C 11.54 0.91 19.85 8.63 19.85 8.63 C 20.38 9.12 20.38 9.91 19.85 10.41 C 19.32 10.9 18.46 10.9 17.93 10.41 C 17.93 10.41 10.58 3.57 10.58 3.57 C 10.58 3.57 3.22 10.41 3.22 10.41 C 2.69 10.9 1.84 10.9 1.31 10.41 C 0.78 9.91 0.78 9.12 1.31 8.63 C 1.31 8.63 9.62 0.9 9.62 0.9 C 9.88 0.66 10.23 0.54 10.58 0.54 C 10.92 0.54 11.27 0.66 11.54 0.91 Z" />
</svg>