<?xml version="1.0" encoding="utf-8"?>
<!-- Generator: Avocode 2.6.0 - http://avocode.com -->
<svg height="13" width="20" xmlns:xlink="http://www.w3.org/1999/xlink" xmlns="http://www.w3.org/2000/svg" viewBox="0 0 20 13">
    <path fill="#ffffff" fill-rule="evenodd" d="M 1.31 5.88 C 1.31 5.88 16.56 5.88 16.56 5.88 C 16.56 5.88 12.92 2.25 12.92 2.25 C 12.6 1.93 12.6 1.41 12.92 1.09 C 13.23 0.77 13.75 0.77 14.07 1.09 C 14.07 1.09 19.1 6.12 19.1 6.12 C 19.42 6.44 19.42 6.96 19.1 7.28 C 19.1 7.28 14.07 12.31 14.07 12.31 C 13.91 12.47 13.7 12.55 13.49 12.55 C 13.29 12.55 13.08 12.47 12.92 12.31 C 12.6 11.99 12.6 11.47 12.92 11.15 C 12.92 11.15 16.56 7.52 16.56 7.52 C 16.56 7.52 1.31 7.52 1.31 7.52 C 0.86 7.52 0.49 7.15 0.49 6.7 C 0.49 6.25 0.86 5.88 1.31 5.88 Z" />
</svg>