<?xml version="1.0" encoding="utf-8"?>
<!-- Generator: Avocode 2.6.0 - http://avocode.com -->
<svg height="21" width="20" xmlns:xlink="http://www.w3.org/1999/xlink" xmlns="http://www.w3.org/2000/svg" viewBox="0 0 20 21">
    <path fill="#939393" fill-rule="evenodd" d="M 9.19 6.99 C 9.19 5.99 8.59 3.99 7.09 3.99 C 6.49 3.99 5.79 4.39 5.79 5.69 C 5.79 6.89 6.39 8.59 7.79 8.59 C 7.79 8.59 9.19 8.49 9.19 6.99 Z M 8.59 11.89 C 8.49 11.89 8.39 11.89 8.29 11.89 C 8.29 11.89 8.29 11.89 8.29 11.89 C 7.99 11.89 7.09 11.99 6.49 12.19 C 5.79 12.39 4.99 12.89 4.99 13.89 C 4.99 14.99 5.99 16.09 7.99 16.09 C 9.49 16.09 10.39 15.09 10.39 14.09 C 10.39 13.39 9.89 12.89 8.59 11.89 Z M 17.99 0.09 C 17.99 0.09 1.99 0.09 1.99 0.09 C 0.89 0.09 -0.01 0.99 -0.01 2.09 C -0.01 2.09 -0.01 18.09 -0.01 18.09 C -0.01 19.19 0.89 20.09 1.99 20.09 C 1.99 20.09 17.99 20.09 17.99 20.09 C 19.09 20.09 19.99 19.19 19.99 18.09 C 19.99 18.09 19.99 2.09 19.99 2.09 C 19.99 0.99 19.09 0.09 17.99 0.09 Z M 7.09 17.29 C 4.29 17.29 2.99 15.69 2.99 14.29 C 2.99 13.79 3.09 12.69 4.49 11.89 C 5.29 11.39 6.29 11.09 7.59 10.99 C 7.39 10.79 7.29 10.49 7.29 9.99 C 7.29 9.79 7.29 9.69 7.39 9.49 C 7.39 9.49 6.99 9.49 6.99 9.49 C 4.99 9.49 3.79 7.99 3.79 6.49 C 3.79 4.79 5.09 2.89 7.89 2.89 C 7.89 2.89 12.09 2.89 12.09 2.89 C 12.09 2.89 11.79 3.19 11.79 3.19 C 11.79 3.19 11.09 3.89 11.09 3.89 C 11.09 3.89 10.99 3.99 10.99 3.99 C 10.99 3.99 10.29 3.99 10.29 3.99 C 10.69 4.39 11.19 5.09 11.19 6.19 C 11.19 7.59 10.49 8.29 9.59 8.89 C 9.39 8.99 9.19 9.29 9.19 9.59 C 9.19 9.89 9.39 10.09 9.59 10.19 C 9.69 10.29 9.89 10.39 10.09 10.49 C 10.89 11.09 11.99 11.79 11.99 13.39 C 11.99 15.19 10.69 17.29 7.09 17.29 Z M 16.99 10.09 C 16.99 10.09 14.99 10.09 14.99 10.09 C 14.99 10.09 14.99 12.09 14.99 12.09 C 14.99 12.09 13.99 12.09 13.99 12.09 C 13.99 12.09 13.99 10.09 13.99 10.09 C 13.99 10.09 11.99 10.09 11.99 10.09 C 11.99 10.09 11.99 9.09 11.99 9.09 C 11.99 9.09 13.99 9.09 13.99 9.09 C 13.99 9.09 13.99 7.09 13.99 7.09 C 13.99 7.09 14.99 7.09 14.99 7.09 C 14.99 7.09 14.99 9.09 14.99 9.09 C 14.99 9.09 16.99 9.09 16.99 9.09 C 16.99 9.09 16.99 10.09 16.99 10.09 Z" />
</svg>