<?xml version="1.0" encoding="utf-8"?>
<!-- Generator: Avocode 2.6.0 - http://avocode.com -->
<svg height="35" width="32" xmlns:xlink="http://www.w3.org/1999/xlink" xmlns="http://www.w3.org/2000/svg" viewBox="0 0 32 35">
    <path fill="#ffffff" fill-rule="evenodd" d="M 30.87 21.02 C 30.66 21.04 30.45 21.06 30.25 21.08 C 30.25 21.08 29.65 21.14 29.65 21.14 C 29.65 21.14 29.6 20.5 29.6 20.5 C 29.26 15.96 27.42 11.68 24.42 8.47 C 21.22 5.04 16.96 3.05 12.42 2.87 C 12.42 2.87 11.84 2.84 11.84 2.84 C 11.84 2.84 11.87 1.96 11.87 1.96 C 11.88 1.79 11.88 1.62 11.89 1.45 C 11.89 1.45 11.94 0.84 11.94 0.84 C 11.94 0.84 12.5 0.86 12.5 0.86 C 17.51 1.06 22.21 3.26 25.74 7.05 C 29.06 10.6 31.09 15.32 31.46 20.34 C 31.46 20.34 31.51 20.97 31.51 20.97 C 31.51 20.97 30.87 21.02 30.87 21.02 Z M 10.75 22.89 C 12.62 24.9 14.4 25.96 15.69 26.73 C 15.69 26.73 16.28 27.08 16.28 27.08 C 16.28 27.08 18.46 24.74 18.46 24.74 C 18.81 24.37 19.29 24.16 19.8 24.16 C 20.28 24.16 20.72 24.35 21.03 24.68 C 21.03 24.68 25.06 29.01 25.06 29.01 C 25.75 29.75 25.73 30.99 25.01 31.76 C 25.01 31.76 24.08 32.74 24.08 32.74 C 24.08 32.74 23.86 32.93 23.86 32.93 C 23.39 33.32 22.86 33.64 22.28 33.88 C 21.75 34.1 21.23 34.25 20.68 34.32 C 20.63 34.32 20.48 34.34 20.22 34.34 C 18.74 34.34 13.38 33.8 6.98 26.93 C 1.57 21.13 -0.42 16.88 0.1 12.25 C 0.16 11.68 0.29 11.12 0.5 10.53 C 0.72 9.91 1.03 9.34 1.39 8.83 C 1.39 8.83 1.49 8.66 1.49 8.66 C 1.49 8.66 2.48 7.6 2.48 7.6 C 2.82 7.23 3.31 7.01 3.82 7.01 C 4.3 7.01 4.73 7.2 5.05 7.54 C 5.05 7.54 9.08 11.86 9.08 11.86 C 9.77 12.6 9.74 13.84 9.02 14.62 C 9.02 14.62 6.84 16.96 6.84 16.96 C 6.84 16.96 7.16 17.57 7.16 17.57 C 7.88 18.97 8.87 20.88 10.75 22.89 Z M 13.47 12.38 C 13.47 12.38 13.05 12.28 13.05 12.28 C 13.05 12.28 13 11.83 13 11.83 C 12.97 11.58 12.94 11.32 12.9 11.07 C 12.9 11.07 12.77 10.21 12.77 10.21 C 12.77 10.21 13.58 10.35 13.58 10.35 C 15.88 10.76 17.96 11.9 19.59 13.65 C 21.41 15.6 22.51 18.11 22.77 20.89 C 22.77 20.89 22.83 21.61 22.83 21.61 C 22.83 21.61 22.01 21.58 22.01 21.58 C 21.86 21.58 21.75 21.58 21.64 21.57 C 21.64 21.57 20.96 21.46 20.96 21.46 C 20.96 21.46 20.91 20.98 20.91 20.98 C 20.68 18.71 19.77 16.67 18.27 15.07 C 16.97 13.67 15.31 12.74 13.47 12.38 Z M 17.76 21.04 C 17.76 21.04 16.89 20.99 16.89 20.99 C 16.89 20.99 16.77 20.54 16.77 20.54 C 16.53 19.62 16.07 18.77 15.44 18.1 C 14.79 17.39 13.95 16.89 13.05 16.64 C 13.05 16.64 12.36 16.45 12.36 16.45 C 12.36 16.45 12.66 15.77 12.66 15.77 C 12.74 15.58 12.81 15.38 12.87 15.16 C 12.87 15.16 13.03 14.57 13.03 14.57 C 13.03 14.57 13.58 14.73 13.58 14.73 C 14.78 15.07 15.89 15.74 16.76 16.68 C 17.69 17.68 18.34 18.93 18.64 20.3 C 18.64 20.3 18.83 21.15 18.83 21.15 C 18.83 21.15 18.01 21.07 18.01 21.07 C 17.93 21.06 17.84 21.05 17.76 21.04 Z M 25.25 20.94 C 25.01 17.46 23.62 14.2 21.35 11.77 C 19.04 9.29 15.97 7.8 12.7 7.56 C 12.7 7.56 12.25 7.53 12.25 7.53 C 12.25 7.53 12.16 7.06 12.16 7.06 C 12.11 6.79 12.07 6.53 12.03 6.27 C 12.03 6.27 11.91 5.5 11.91 5.5 C 11.91 5.5 12.64 5.54 12.64 5.54 C 16.43 5.78 19.99 7.49 22.67 10.35 C 25.26 13.13 26.84 16.83 27.12 20.78 C 27.12 20.78 27.16 21.41 27.16 21.41 C 27.16 21.41 26.34 21.48 26.34 21.48 C 26.14 21.5 26.01 21.51 25.87 21.52 C 25.87 21.52 25.3 21.56 25.3 21.56 C 25.3 21.56 25.25 20.94 25.25 20.94 Z" />
</svg>