<?xml version="1.0" encoding="utf-8"?>
<!-- Generator: Avocode 2.6.0 - http://avocode.com -->
<svg height="26" width="25" xmlns:xlink="http://www.w3.org/1999/xlink" xmlns="http://www.w3.org/2000/svg" viewBox="0 0 25 26">
    <path fill="#ffffff" fill-rule="evenodd" d="M 23.62 16.85 C 23.62 16.85 24.67 8.5 24.67 8.5 C 24.67 8.5 17.07 5.62 17.07 5.62 C 17.07 5.62 14.66 6.76 14.66 6.76 C 14.59 7.13 14.47 7.49 14.33 7.83 C 14.33 7.83 16.15 6.96 16.15 6.96 C 16.15 6.96 15.4 15.06 15.4 15.06 C 15.4 15.06 15.44 15.5 15.44 15.5 C 15.44 15.5 9.88 16.33 9.88 16.33 C 9.88 16.33 9.43 17.23 9.43 17.23 C 9.43 17.23 15.52 16.31 15.52 16.31 C 15.52 16.31 16.22 23.49 16.22 23.49 C 16.22 23.49 17.04 23.41 17.04 23.41 C 17.04 23.41 16.33 16.19 16.33 16.19 C 16.33 16.19 16.4 16.18 16.4 16.18 C 16.4 16.18 22.77 16.99 22.77 16.99 C 22.77 16.99 22.79 16.86 22.79 16.86 C 22.79 16.86 23.75 24.94 23.75 24.94 C 23.75 24.94 17.12 23.41 17.12 23.41 C 17.12 23.41 8.49 25.05 8.49 25.05 C 8.49 25.05 8.42 25.04 8.42 25.04 C 8.42 25.04 9.19 17.67 9.19 17.67 C 9.19 17.67 9.19 17.63 9.19 17.63 C 9.19 17.63 9.16 17.35 9.16 17.35 C 9.16 17.35 8.09 15.25 8.09 15.25 C 8.09 15.25 8.24 16.58 8.24 16.58 C 8.24 16.58 8.05 16.61 8.05 16.61 C 8.05 16.61 1.9 15.66 1.9 15.66 C 1.9 15.66 1.94 15.35 1.94 15.35 C 1.94 15.35 0.99 7.93 0.99 7.93 C 0.99 7.93 5.3 9.74 5.3 9.74 C 5.3 9.74 4.94 9.03 4.94 9.03 C 4.82 8.88 4.72 8.73 4.62 8.56 C 4.62 8.56 0 6.62 0 6.62 C 0 6.62 1.11 15.36 1.11 15.36 C 1.11 15.36 1.09 15.53 1.09 15.53 C 1.09 15.53 1.07 15.53 1.07 15.53 C 1.07 15.53 0.95 16.34 0.95 16.34 C 0.95 16.34 0.99 16.35 0.99 16.35 C 0.99 16.35 0.05 24.3 0.05 24.3 C 0.05 24.3 8.49 25.89 8.49 25.89 C 8.49 25.89 17.1 24.25 17.1 24.25 C 17.1 24.25 24.7 26 24.7 26 C 24.7 26 23.62 16.85 23.62 16.85 Z M 16.39 15.35 C 16.39 15.35 16.25 15.37 16.25 15.37 C 16.25 15.37 16.22 15.06 16.22 15.06 C 16.22 15.06 17.01 6.55 17.01 6.55 C 17.01 6.55 17.11 6.51 17.11 6.51 C 17.11 6.51 23.78 9.04 23.78 9.04 C 23.78 9.04 22.87 16.17 22.87 16.17 C 22.87 16.17 16.39 15.35 16.39 15.35 Z M 7.61 24.89 C 7.61 24.89 0.95 23.64 0.95 23.64 C 0.95 23.64 1.81 16.47 1.81 16.47 C 1.81 16.47 8.05 17.44 8.05 17.44 C 8.05 17.44 8.34 17.4 8.34 17.4 C 8.34 17.4 8.37 17.67 8.37 17.67 C 8.37 17.67 7.61 24.89 7.61 24.89 Z M 9.26 17.56 C 9.26 17.56 9.16 17.35 9.16 17.35 C 9.16 17.35 9.15 17.27 9.15 17.27 C 9.15 17.27 9.43 17.23 9.43 17.23 C 9.43 17.23 9.26 17.56 9.26 17.56 Z M 5.58 8.33 C 5.58 8.33 9.2 15.49 9.2 15.49 C 9.2 15.49 12.79 8.41 12.79 8.41 C 13.5 7.59 13.93 6.52 13.93 5.36 C 13.93 2.77 11.82 0.66 9.23 0.66 C 6.63 0.66 4.53 2.77 4.53 5.36 C 4.53 6.49 4.93 7.52 5.59 8.33 C 5.59 8.33 5.58 8.33 5.58 8.33 Z M 9.23 2.47 C 10.82 2.47 12.12 3.77 12.12 5.36 C 12.12 6.95 10.82 8.25 9.23 8.25 C 7.63 8.25 6.34 6.95 6.34 5.36 C 6.34 3.77 7.63 2.47 9.23 2.47 Z" />
</svg>