<?xml version="1.0" encoding="utf-8"?>
<!-- Generator: Avocode 2.6.0 - http://avocode.com -->
<svg height="21" width="23" xmlns:xlink="http://www.w3.org/1999/xlink" xmlns="http://www.w3.org/2000/svg" viewBox="0 0 23 21">
    <path fill="#ffffff" fill-rule="evenodd" d="M 16.19 20.99 C 14.57 20.99 13.09 20.42 11.92 19.46 C 11.92 19.46 1.42 19.46 1.42 19.46 C 0.63 19.46 -0.01 18.8 -0.01 17.99 C -0.01 17.99 -0.01 1.48 -0.01 1.48 C -0.01 0.67 0.63 0.01 1.42 0.01 C 1.42 0.01 17.51 0.01 17.51 0.01 C 18.3 0.01 18.95 0.67 18.95 1.48 C 18.95 1.48 18.95 7.58 18.95 7.58 C 21.35 8.67 23.02 11.12 23.02 13.99 C 23.02 17.86 19.96 20.99 16.19 20.99 Z M 16.19 20.34 C 16.53 20.34 16.81 20.05 16.81 19.7 C 16.81 19.34 16.53 19.05 16.19 19.05 C 15.84 19.05 15.56 19.34 15.56 19.7 C 15.56 20.05 15.84 20.34 16.19 20.34 Z M 11.25 13.99 C 11.24 13.63 10.97 13.35 10.62 13.35 C 10.27 13.35 9.99 13.63 9.99 13.99 C 9.99 14.34 10.27 14.63 10.62 14.63 C 10.97 14.63 11.25 14.34 11.25 13.99 Z M 12.73 1.46 C 12.73 1.46 6.2 1.46 6.2 1.46 C 6.2 1.46 6.2 3.19 6.2 3.19 C 6.2 3.19 12.73 3.19 12.73 3.19 C 12.73 3.19 12.73 1.46 12.73 1.46 Z M 17.18 4.84 C 17.18 4.84 1.75 4.84 1.75 4.84 C 1.75 4.84 1.75 17.46 1.75 17.46 C 1.75 17.46 10.26 17.46 10.26 17.46 C 9.69 16.43 9.35 15.25 9.35 13.99 C 9.35 12.21 10 10.6 11.06 9.36 C 11.06 9.36 10.13 9.36 10.13 9.36 C 10.13 9.36 10.13 7.28 10.13 7.28 C 10.13 7.28 12.17 7.28 12.17 7.28 C 12.17 7.28 12.17 8.32 12.17 8.32 C 13.3 7.48 14.68 6.98 16.19 6.98 C 16.53 6.98 16.86 7.01 17.18 7.06 C 17.18 7.06 17.18 4.84 17.18 4.84 Z M 15.56 8.27 C 15.56 8.63 15.84 8.92 16.19 8.92 C 16.53 8.92 16.81 8.63 16.81 8.27 C 16.81 7.92 16.53 7.63 16.19 7.63 C 15.84 7.63 15.56 7.92 15.56 8.27 Z M 20.03 10.29 C 19.84 10.08 19.48 10.11 19.25 10.35 C 19.25 10.35 16.77 12.9 16.77 12.9 C 16.59 12.8 16.4 12.73 16.19 12.73 C 15.86 12.73 15.57 12.86 15.35 13.08 C 15.35 13.08 12.8 11.04 12.8 11.04 C 12.56 10.84 12.22 10.87 12.05 11.1 C 11.87 11.33 11.93 11.67 12.17 11.87 C 12.17 11.87 14.96 14.09 14.96 14.09 C 14.99 14.75 15.52 15.28 16.17 15.28 C 16.85 15.28 17.4 14.72 17.4 14.02 C 17.4 13.93 17.38 13.86 17.36 13.77 C 17.36 13.77 19.98 11.09 19.98 11.09 C 20.21 10.85 20.23 10.49 20.03 10.29 Z M 21.75 13.34 C 21.4 13.34 21.13 13.63 21.13 13.99 C 21.13 14.34 21.4 14.63 21.75 14.63 C 22.1 14.63 22.38 14.34 22.38 13.99 C 22.38 13.63 22.1 13.34 21.75 13.34 Z M 6.72 13.89 C 6.72 13.89 8.76 13.89 8.76 13.89 C 8.76 13.89 8.76 15.98 8.76 15.98 C 8.76 15.98 6.72 15.98 6.72 15.98 C 6.72 15.98 6.72 13.89 6.72 13.89 Z M 6.72 10.58 C 6.72 10.58 8.76 10.58 8.76 10.58 C 8.76 10.58 8.76 12.67 8.76 12.67 C 8.76 12.67 6.72 12.67 6.72 12.67 C 6.72 12.67 6.72 10.58 6.72 10.58 Z M 6.72 7.28 C 6.72 7.28 8.76 7.28 8.76 7.28 C 8.76 7.28 8.76 9.37 8.76 9.37 C 8.76 9.37 6.72 9.37 6.72 9.37 C 6.72 9.37 6.72 7.28 6.72 7.28 Z M 3.31 13.89 C 3.31 13.89 5.34 13.89 5.34 13.89 C 5.34 13.89 5.34 15.98 5.34 15.98 C 5.34 15.98 3.31 15.98 3.31 15.98 C 3.31 15.98 3.31 13.89 3.31 13.89 Z M 3.31 10.58 C 3.31 10.58 5.34 10.58 5.34 10.58 C 5.34 10.58 5.34 12.67 5.34 12.67 C 5.34 12.67 3.31 12.67 3.31 12.67 C 3.31 12.67 3.31 10.58 3.31 10.58 Z" />
</svg>