<?xml version="1.0" encoding="utf-8"?>
<!-- Generator: Avocode 2.6.0 - http://avocode.com -->
<svg height="21" width="20" xmlns:xlink="http://www.w3.org/1999/xlink" xmlns="http://www.w3.org/2000/svg" viewBox="0 0 20 21">
    <path fill="#ffffff" fill-rule="evenodd" d="M 10 20.25 C 4.48 20.25 0 18.82 0 17.06 C 0 15.63 2.96 14.42 7.03 14.01 C 7.46 14.63 7.86 15.17 8.19 15.61 C 4.89 15.81 2.72 16.52 1.91 17.06 C 2.86 17.68 5.67 18.56 10 18.56 C 14.33 18.56 17.14 17.68 18.08 17.06 C 17.28 16.52 15.11 15.81 11.8 15.61 C 12.13 15.17 12.53 14.63 12.96 14.01 C 17.04 14.42 20 15.63 20 17.06 C 20 18.82 15.52 20.25 10 20.25 Z M 4.76 5.52 C 4.76 2.61 7.1 0.25 10 0.25 C 12.89 0.25 15.24 2.61 15.24 5.52 C 15.24 9.66 10 15.84 10 15.84 C 10 15.84 4.76 9.68 4.76 5.52 Z M 12.58 5.2 C 12.58 3.77 11.43 2.61 10 2.61 C 8.57 2.61 7.42 3.77 7.42 5.2 C 7.42 6.64 8.57 7.8 10 7.8 C 11.43 7.8 12.58 6.64 12.58 5.2 Z M 10 3.93 C 10.7 3.93 11.27 4.5 11.27 5.2 C 11.27 5.91 10.7 6.48 10 6.48 C 9.3 6.48 8.73 5.91 8.73 5.2 C 8.73 4.5 9.3 3.93 10 3.93 Z" />
</svg>