<?xml version="1.0" encoding="utf-8"?>
<!-- Generator: Avocode 2.6.0 - http://avocode.com -->
<svg height="21" width="21" xmlns:xlink="http://www.w3.org/1999/xlink" xmlns="http://www.w3.org/2000/svg" viewBox="0 0 21 21">
    <path fill="#939393" fill-rule="evenodd" d="M 19.15 0.13 C 19.15 0.13 1.09 0.13 1.09 0.13 C 0.49 0.13 0.01 0.61 0.01 1.21 C 0.01 1.21 0.01 19.27 0.01 19.27 C 0.01 19.86 0.49 20.34 1.09 20.34 C 1.09 20.34 19.15 20.34 19.15 20.34 C 19.74 20.34 20.22 19.86 20.22 19.27 C 20.22 19.27 20.22 1.21 20.22 1.21 C 20.22 0.61 19.74 0.13 19.15 0.13 Z M 16.24 6.51 C 15.9 7.01 15.49 7.44 15.01 7.79 C 15.01 7.89 15.01 7.99 15.01 8.08 C 15.01 11.6 12.34 15.23 7.87 15.23 C 6.5 15.23 5.17 14.84 4.02 14.1 C 3.99 14.09 3.98 14.06 3.99 14.03 C 4 14 4.03 13.99 4.06 13.99 C 4.25 14.01 4.45 14.03 4.64 14.03 C 5.71 14.03 6.71 13.7 7.57 13.07 C 6.54 12.99 5.67 12.29 5.35 11.31 C 5.34 11.29 5.35 11.26 5.36 11.25 C 5.38 11.23 5.4 11.23 5.42 11.23 C 5.7 11.28 5.99 11.29 6.27 11.24 C 5.21 10.91 4.47 9.93 4.47 8.8 C 4.47 8.8 4.47 8.77 4.47 8.77 C 4.47 8.75 4.49 8.73 4.51 8.72 C 4.52 8.71 4.55 8.71 4.57 8.72 C 4.84 8.87 5.14 8.97 5.45 9.01 C 4.85 8.53 4.49 7.79 4.49 7.01 C 4.49 6.56 4.61 6.12 4.84 5.73 C 4.85 5.71 4.87 5.7 4.89 5.7 C 4.91 5.7 4.93 5.7 4.94 5.72 C 6.18 7.24 8 8.18 9.95 8.3 C 9.92 8.13 9.9 7.96 9.9 7.79 C 9.9 6.39 11.05 5.24 12.45 5.24 C 13.14 5.24 13.81 5.53 14.29 6.02 C 14.83 5.91 15.35 5.72 15.82 5.43 C 15.84 5.42 15.87 5.42 15.89 5.44 C 15.91 5.45 15.92 5.48 15.91 5.5 C 15.75 6.01 15.43 6.45 15.01 6.76 C 15.41 6.7 15.8 6.58 16.16 6.42 C 16.19 6.41 16.22 6.41 16.23 6.43 C 16.25 6.45 16.25 6.48 16.24 6.51 Z" />
</svg>