<?xml version="1.0" encoding="utf-8"?>
<!-- Generator: Avocode 2.6.0 - http://avocode.com -->
<svg height="21" width="21" xmlns:xlink="http://www.w3.org/1999/xlink" xmlns="http://www.w3.org/2000/svg" viewBox="0 0 21 21">
    <path fill="#939393" fill-rule="evenodd" d="M 20.25 1 C 20.25 1 20.25 20.45 20.25 20.45 C 20.25 20.59 20.2 20.71 20.1 20.8 C 20 20.89 19.87 20.94 19.73 20.94 C 19.73 20.94 0.5 20.94 0.5 20.94 C 0.36 20.94 0.24 20.89 0.14 20.8 C 0.04 20.71 -0.01 20.59 -0.01 20.45 C -0.01 20.45 -0.01 1 -0.01 1 C -0.01 0.86 0.04 0.74 0.14 0.65 C 0.24 0.55 0.36 0.51 0.5 0.51 C 0.5 0.51 19.73 0.51 19.73 0.51 C 19.87 0.51 20 0.55 20.1 0.65 C 20.2 0.74 20.25 0.86 20.25 1 Z M 11.25 18.57 C 11.25 18.57 11.25 11.35 11.25 11.35 C 11.25 11.35 13.88 11.35 13.88 11.35 C 13.88 11.35 13.99 8.76 13.99 8.76 C 13.99 8.76 11.25 8.76 11.25 8.76 C 11.25 8.76 11.25 6.86 11.25 6.86 C 11.25 6.5 11.31 6.21 11.43 6 C 11.55 5.79 11.84 5.7 12.3 5.71 C 12.3 5.71 13.92 5.71 13.92 5.71 C 13.92 5.71 13.99 3.29 13.99 3.29 C 13.79 3.26 13.58 3.24 13.37 3.24 C 13.16 3.23 12.97 3.22 12.8 3.2 C 12.6 3.19 12.4 3.18 12.2 3.18 C 11.56 3.14 11.02 3.21 10.57 3.39 C 10.11 3.57 9.74 3.82 9.44 4.15 C 9.15 4.47 8.93 4.84 8.78 5.26 C 8.64 5.68 8.57 6.1 8.57 6.53 C 8.57 6.53 8.57 8.76 8.57 8.76 C 8.57 8.76 6.71 8.76 6.71 8.76 C 6.71 8.76 6.71 11.35 6.71 11.35 C 6.71 11.35 8.57 11.35 8.57 11.35 C 8.57 11.35 8.57 18.57 8.57 18.57 C 8.57 18.57 11.25 18.57 11.25 18.57 Z" />
</svg>