<?xml version="1.0" encoding="utf-8"?>
<!-- Generator: Avocode 2.6.0 - http://avocode.com -->
<svg height="26" width="16" xmlns:xlink="http://www.w3.org/1999/xlink" xmlns="http://www.w3.org/2000/svg" viewBox="0 0 16 26">
    <path fill="#ffffff" fill-rule="evenodd" d="M 13.62 0.02 C 13.62 0.02 2.41 0.02 2.41 0.02 C 1.09 0.02 0.01 1.12 0.01 2.46 C 0.01 2.46 0.01 23.58 0.01 23.58 C 0.01 24.92 1.09 26.02 2.41 26.02 C 2.41 26.02 13.62 26.02 13.62 26.02 C 14.94 26.02 16.02 24.92 16.02 23.58 C 16.02 23.58 16.02 2.46 16.02 2.46 C 16.02 1.12 14.94 0.02 13.62 0.02 Z M 4.81 1.24 C 4.81 1.24 11.22 1.24 11.22 1.24 C 11.22 1.24 11.22 2.05 11.22 2.05 C 11.22 2.05 4.81 2.05 4.81 2.05 C 4.81 2.05 4.81 1.24 4.81 1.24 Z M 8.01 24.39 C 7.13 24.39 6.41 23.67 6.41 22.77 C 6.41 21.87 7.13 21.14 8.01 21.14 C 8.9 21.14 9.62 21.87 9.62 22.77 C 9.62 23.67 8.9 24.39 8.01 24.39 Z M 14.42 19.52 C 14.42 19.52 1.61 19.52 1.61 19.52 C 1.61 19.52 1.61 3.27 1.61 3.27 C 1.61 3.27 14.42 3.27 14.42 3.27 C 14.42 3.27 14.42 19.52 14.42 19.52 Z" />
</svg>