<?xml version="1.0" encoding="utf-8"?>
<!-- Generator: Avocode 2.6.0 - http://avocode.com -->
<svg height="28" width="27" xmlns:xlink="http://www.w3.org/1999/xlink" xmlns="http://www.w3.org/2000/svg" viewBox="0 0 27 28">
    <path fill="#ffffff" fill-rule="evenodd" d="M 13.5 27.24 C 6.05 27.24 0 25.32 0 22.94 C 0 21.01 3.99 19.37 9.49 18.83 C 10.07 19.67 10.61 20.4 11.06 20.98 C 6.6 21.25 3.67 22.22 2.58 22.94 C 3.86 23.79 7.65 24.97 13.5 24.97 C 19.35 24.97 23.14 23.79 24.41 22.94 C 23.33 22.22 20.4 21.25 15.93 20.98 C 16.38 20.39 16.92 19.67 17.5 18.83 C 23 19.37 27 21.01 27 22.94 C 27 25.32 20.95 27.24 13.5 27.24 Z M 6.43 7.36 C 6.43 3.43 9.59 0.25 13.5 0.25 C 17.4 0.25 20.57 3.43 20.57 7.36 C 20.57 12.95 13.5 21.3 13.5 21.3 C 13.5 21.3 6.43 12.98 6.43 7.36 Z M 16.99 6.93 C 16.99 5 15.42 3.43 13.5 3.43 C 11.57 3.43 10.01 5 10.01 6.93 C 10.01 8.87 11.57 10.44 13.5 10.44 C 15.42 10.44 16.99 8.87 16.99 6.93 Z M 13.5 5.21 C 14.44 5.21 15.21 5.98 15.21 6.93 C 15.21 7.89 14.44 8.66 13.5 8.66 C 12.55 8.66 11.78 7.89 11.78 6.93 C 11.78 5.98 12.55 5.21 13.5 5.21 Z" />
</svg>