<?xml version="1.0" encoding="utf-8"?>
<!-- Generator: Avocode 2.6.0 - http://avocode.com -->
<svg height="20" width="56" xmlns:xlink="http://www.w3.org/1999/xlink" xmlns="http://www.w3.org/2000/svg" viewBox="0 0 56 20">
    <path fill="#dcdcdc" fill-rule="evenodd" d="M 39.4 0.38 C 35.37 0.66 31.21 2.2 26.66 1.9 C 23.27 1.68 19.78 0.61 16.62 0.38 C 14.47 0.21 11.2 0.38 9.54 0.51 C 6.41 0.78 1.66 1.28 0.91 3.43 C 0.02 5.96 2.14 6.81 2.61 7.88 C 3.29 9.42 3.21 11.01 3.74 12.32 C 4.23 13.53 4.87 14.85 5.72 15.93 C 8.77 19.83 17.48 20.21 21.43 17.04 C 22.67 16.04 23.97 13.93 24.82 12.04 C 25.42 10.72 26.09 6.77 27.93 6.77 C 29.35 6.77 29.54 8.01 29.92 9.27 C 30.96 12.77 32.69 16.03 35.15 17.6 C 39 20.06 45.82 19.88 48.88 17.32 C 50.72 15.78 51.98 13.07 52.7 10.79 C 52.98 9.89 52.88 8.74 53.27 7.88 C 53.84 6.58 55.24 6.34 55.11 4.27 C 54.85 0.34 44.4 0.02 39.4 0.38 Z M 20.3 15.38 C 17.53 17.64 11.7 18 8.69 15.93 C 6.89 14.69 3.6 8.41 5.72 4.54 C 6.47 3.17 7.83 2.82 9.83 2.6 C 14.99 2.03 22.84 2.79 23.98 6.35 C 25.06 9.72 21.99 13.99 20.3 15.38 Z M 50.58 8.85 C 50.34 11.55 48.86 15.08 46.9 16.07 C 42.61 18.23 36.75 17.18 34.16 13.85 C 32.84 12.14 31.11 8.83 31.9 6.35 C 32.72 3.75 36.61 2.9 40.39 2.6 C 47.05 2.06 51.17 2.24 50.58 8.85 Z M 46.37 3.57 C 46.27 3.37 46.03 3.28 45.82 3.38 C 45.62 3.47 45.53 3.71 45.62 3.91 C 45.62 3.91 48.26 9.48 48.26 9.48 C 48.36 9.68 48.61 9.77 48.81 9.68 C 49.02 9.59 49.11 9.34 49.01 9.14 C 49.01 9.14 46.37 3.57 46.37 3.57 Z M 45 4.92 C 44.9 4.72 44.65 4.63 44.45 4.72 C 44.24 4.81 44.15 5.06 44.25 5.26 C 44.25 5.26 46.07 9.48 46.07 9.48 C 46.16 9.68 46.41 9.77 46.61 9.68 C 46.82 9.59 46.91 9.34 46.81 9.14 C 46.81 9.14 45 4.92 45 4.92 Z" />
</svg>